<?xml version="1.0" encoding="utf-8"?>
<!-- Generator: Adobe Illustrator 19.2.1, SVG Export Plug-In . SVG Version: 6.00 Build 0)  -->
<svg version="1.1" id="Layer_1" xmlns="http://www.w3.org/2000/svg" xmlns:xlink="http://www.w3.org/1999/xlink" x="0px" y="0px"
	 viewBox="0 0 100 87.4" style="enable-background:new 0 0 100 87.4;" xml:space="preserve">
<style type="text/css">
	.st0{clip-path:url(#SVGID_2_);fill:#b5c5db;}
</style>
<g>
	<g>
		<g>
			<g>
				<g>
					<g>
						<defs>
							<rect id="SVGID_1_" x="0.4" y="0.2" width="99.4" height="87.2"/>
						</defs>
						<clipPath id="SVGID_2_">
							<use xlink:href="#SVGID_1_"  style="overflow:visible;"/>
						</clipPath>
						<path class="st0" d="M98.8,78L55.5,3.5c-1-1.8-3.1-3.1-5.4-3.1c-2.3,0-4.3,1.3-5.4,3.1L1.4,78c-1,2-1,4.3,0,6.1
							c1,2,3.1,3.1,5.4,3.1h86.9c2.3,0,4.3-1.3,5.4-3.1C99.8,82.3,99.8,80,98.8,78L98.8,78z M49.8,74.9c-3.3,0-6.1-2.8-6.1-6.1
							s2.8-6.1,6.1-6.1s6.1,2.8,6.1,6.1C56.2,72.1,53.4,74.9,49.8,74.9L49.8,74.9z M56.2,50.2c0,3.3-2.8,6.1-6.1,6.1
							S44,53.5,44,50.2V31.6c0-3.3,2.8-6.1,6.1-6.1s6.1,2.8,6.1,6.1V50.2z"/>
					</g>
				</g>
			</g>
		</g>
	</g>
</g>
</svg>
