<?xml version="1.0" encoding="utf-8"?>
<!-- Generator: Adobe Illustrator 19.2.1, SVG Export Plug-In . SVG Version: 6.00 Build 0)  -->
<svg version="1.1" id="Layer_1" xmlns="http://www.w3.org/2000/svg" xmlns:xlink="http://www.w3.org/1999/xlink" x="0px" y="0px"
	 viewBox="0 0 100 100" style="enable-background:new 0 0 100 100;" xml:space="preserve">
<style type="text/css">
	.st0{fill:#ff6600;}
</style>
<g>
	<path class="st0" d="M50,0.4C22.5,0.4,0.4,22.5,0.4,50S22.5,99.6,50,99.6S99.6,77.5,99.6,50S77.5,0.4,50,0.4L50,0.4z M50,91
		C27.4,91,9,72.6,9,50S27.4,9,50,9s41,18.3,41,41S72.6,91,50,91L50,91z M65.9,35.7l-1.6-1.6c-1.3-1.3-3.2-1.3-4.6,0L50,43.8
		l-9.7-9.7c-1.3-1.3-3.2-1.3-4.6,0l-1.6,1.6c-1.3,1.3-1.3,3.2,0,4.6l9.7,9.7l-9.7,9.7c-1.3,1.3-1.3,3.2,0,4.6l1.6,1.6
		c1.3,1.3,3.2,1.3,4.6,0l9.7-9.7l9.7,9.7c1.3,1.3,3.2,1.3,4.6,0l1.6-1.6c1.3-1.3,1.3-3.2,0-4.6L56.2,50l9.7-9.7
		C67.3,38.9,67.3,37.1,65.9,35.7L65.9,35.7z"/>
</g>
</svg>
