<?xml version="1.0" encoding="utf-8"?>
<!-- Generator: Adobe Illustrator 19.2.1, SVG Export Plug-In . SVG Version: 6.00 Build 0)  -->
<svg version="1.1" id="Layer_1" xmlns="http://www.w3.org/2000/svg" xmlns:xlink="http://www.w3.org/1999/xlink" x="0px" y="0px"
	 viewBox="0 0 100 63.5" style="enable-background:new 0 0 100 63.5;" xml:space="preserve">
<style type="text/css">
	.st0{fill:#dcdcdc;}
</style>
<g>
	<path class="st0" d="M29.5,45.7c-2.7,0-4.9,2.2-4.9,4.9s2.2,4.9,4.9,4.9c2.7,0,4.9-2.2,4.9-4.9C34.5,47.9,32.3,45.7,29.5,45.7
		L29.5,45.7z M29.5,52.3c-1,0-1.7-0.8-1.7-1.7c0-1,0.8-1.7,1.7-1.7s1.7,0.8,1.7,1.7C31.2,51.5,30.6,52.3,29.5,52.3L29.5,52.3z"/>
	<path class="st0" d="M77,45.7c-2.7,0-4.9,2.2-4.9,4.9s2.2,4.9,4.9,4.9c2.7,0,4.9-2.2,4.9-4.9C82.1,47.9,79.9,45.7,77,45.7L77,45.7z
		 M77,52.3c-1,0-1.7-0.8-1.7-1.7c0-1,0.8-1.7,1.7-1.7c1,0,1.7,0.8,1.7,1.7C78.8,51.5,78,52.3,77,52.3L77,52.3z"/>
	<path class="st0" d="M97.3,42.6V30.4c0-1.4-0.3-3-1.1-4.3l-9-15.4c-1.4-2.5-4.3-4.1-7.3-4.1H68.5c-1.7,0-3.3,1.4-3.3,3.3v29h-3.6
		V6.6c0-2.7-2.2-4.9-4.9-4.9H5.7C3,1.7,0.8,3.9,0.8,6.6v40.8c0,2.7,2.2,4.9,4.9,4.9h12.1c0.8,5.7,5.7,10.2,11.7,10.2
		S40.4,58,41.2,52.3h24.3c0.8,5.7,5.7,10.2,11.7,10.2c6,0,10.9-4.4,11.7-10.2h7c1.7,0,3.3-1.4,3.3-3.3v-3.3
		C99.1,44.2,98.3,43.1,97.3,42.6L97.3,42.6z M92.4,42.2c-1.7,0-3.3,1.4-3.3,3.3V49h-0.3C88,43.3,83.1,38.8,77,38.8
		c-3.3,0-6.5,1.4-8.6,3.8V30.3h13.3c1,0,1.7,0.3,2.5,1l2.1,2.1c1.3,1.3,3,1.9,4.8,1.9h3v7H92.4L92.4,42.2z M94.2,30.4V32h-3
		c-1,0-1.7-0.3-2.5-1L86.6,29c-1.3-1.3-3-1.9-4.8-1.9H68.5V16.5h18.4l6.5,11.3C93.9,28.5,94.2,29.5,94.2,30.4L94.2,30.4z M68.6,9.8
		h11.4c1.9,0,3.5,1,4.4,2.5l0.6,1H68.5L68.6,9.8C68.5,9.8,68.5,9.8,68.6,9.8L68.6,9.8z M65.3,42v7h-3.6v-7H65.3z M3.9,35.2h3.6v5.2
		c0,1-0.8,1.7-1.7,1.7H4.1L3.9,35.2L3.9,35.2z M3.9,47.2v-1.7h1.7c2.7,0,4.9-2.2,4.9-4.9v-6.8c0-1-0.6-1.6-1.6-1.6H3.8V6.6
		c0-1,0.8-1.7,1.7-1.7h50.9c1,0,1.7,0.8,1.7,1.7v42.5H40.9C40.1,43.4,35.2,39,29.1,39c-6,0-10.9,4.4-11.7,10.2H5.3
		C4.7,49,3.9,48.2,3.9,47.2L3.9,47.2z M29.5,59.1c-4.8,0-8.6-3.8-8.6-8.6l0,0l0,0c0-4.8,3.8-8.6,8.6-8.6s8.6,3.8,8.6,8.6
		C38.2,55.3,34.2,59.1,29.5,59.1L29.5,59.1z M77,59.1c-4.8,0-8.6-3.8-8.6-8.6S72.3,42,77,42s8.6,3.8,8.6,8.6S81.8,59.1,77,59.1
		L77,59.1z M95.9,48.8C95.9,49,95.8,49,95.9,48.8L92.3,49v-3.5c0,0,0-0.2,0.2-0.2h3.3c0,0,0.2,0,0.2,0.2L95.9,48.8L95.9,48.8z"/>
	<path class="st0" d="M46.1,21.5l-5.7,5.7c-0.6,0.6-0.6,1.6,0,2.2c0.3,0.3,0.8,0.5,1.1,0.5s0.8-0.2,1.1-0.5l8.6-8.6c0,0,0,0,0.2-0.2
		l0,0l0.2-0.2l0,0c0,0,0-0.2,0.2-0.2l0,0l0,0v-0.2l0,0v-0.2l0,0V20l0,0v-0.2l0,0v-0.2l0,0c0-0.2-0.2-0.3-0.2-0.3l0,0l-0.2-0.2
		l-8.6-8.6c-0.6-0.6-1.6-0.6-2.2,0c-0.6,0.6-0.6,1.6,0,2.2l5.7,5.7H12.8c-1,0-1.6,0.6-1.6,1.6s0.6,1.6,1.6,1.6L46.1,21.5L46.1,21.5z
		"/>
</g>
</svg>
