<?xml version="1.0" encoding="utf-8"?>
<!-- Generator: Adobe Illustrator 19.2.1, SVG Export Plug-In . SVG Version: 6.00 Build 0)  -->
<svg version="1.1" id="Layer_1" xmlns="http://www.w3.org/2000/svg" xmlns:xlink="http://www.w3.org/1999/xlink" x="0px" y="0px"
	 viewBox="0 0 59.2 100" style="enable-background:new 0 0 59.2 100;" xml:space="preserve">
<style type="text/css">
	.st0{fill:#06589c;}
</style>
<g>
	<g>
		<rect x="11.3" y="48.2" class="st0" width="2.3" height="7.3"/>
	</g>
	<g>
		<path class="st0" d="M56.1,98.9H2.7c-1.1,0-1.8-0.9-1.8-1.8V3.2c0-1.1,0.9-1.8,1.8-1.8h53.4c1.1,0,1.8,0.9,1.8,1.8v93.9
			C57.9,98.2,57.2,98.9,56.1,98.9z M4.7,95.1h49.6V5H4.7V95.1z"/>
	</g>
	<g>
		<rect x="3.3" y="84.6" class="st0" width="51.6" height="2.3"/>
	</g>
	<g>
		<polygon class="st0" points="12.9,20.9 8.8,18 4.5,18 4.5,15.9 9.5,15.9 14.3,19.1 		"/>
	</g>
	<g>
		<path class="st0" d="M10.2,25.7c-0.2,0-0.5,0-0.7-0.2C9,25,9,24.3,9.3,23.9l6.1-8c0.5-0.5,1.1-0.5,1.6-0.2
			c0.5,0.5,0.5,1.1,0.2,1.6l-6.1,8C10.9,25.5,10.4,25.7,10.2,25.7z"/>
	</g>
	<g>
		<path class="st0" d="M43.8,86.6c-0.7,0-1.1-0.5-1.1-1.1V3.2c0-0.7,0.5-1.1,1.1-1.1S45,2.5,45,3.2v82.5
			C45,86.2,44.3,86.6,43.8,86.6z"/>
	</g>
</g>
</svg>
