<?xml version="1.0" encoding="utf-8"?>
<!-- Generator: Adobe Illustrator 19.2.1, SVG Export Plug-In . SVG Version: 6.00 Build 0)  -->
<svg version="1.1" id="Layer_1" xmlns="http://www.w3.org/2000/svg" xmlns:xlink="http://www.w3.org/1999/xlink" x="0px" y="0px"
	 viewBox="0 0 88.7 100" style="enable-background:new 0 0 88.7 100;" xml:space="preserve">
<style type="text/css">
	.st0{fill:#06589c;}
</style>
<g>
	<g>
		<rect x="11.4" y="48.4" class="st0" width="2.3" height="7.3"/>
	</g>
	<g>
		<path class="st0" d="M85.7,99.1H2.8c-1.1,0-1.8-0.9-1.8-1.8V3.4c0-1.1,0.9-1.8,1.8-1.8h82.9c1.1,0,1.8,0.9,1.8,1.8v93.9
			C87.8,98.2,86.9,99.1,85.7,99.1z M4.8,95.2h79.1v-90H4.8V95.2z"/>
	</g>
	<g>
		<rect x="3.5" y="73.2" class="st0" width="81.1" height="2.3"/>
	</g>
	<g>
		<polygon class="st0" points="13.3,21.1 9.2,18.2 4.6,18.2 4.6,15.9 9.8,15.9 14.4,19.3 		"/>
	</g>
	<g>
		<path class="st0" d="M10.3,25.9c-0.2,0-0.5,0-0.7-0.2c-0.5-0.5-0.5-1.1-0.2-1.6l6.1-8c0.5-0.5,1.1-0.5,1.6-0.2
			c0.5,0.5,0.5,1.1,0.2,1.6l-6.1,8C11,25.7,10.5,25.9,10.3,25.9z"/>
	</g>
	<g>
		<path class="st0" d="M73.5,75.5c-0.7,0-1.1-0.5-1.1-1.1V3.4c0-0.7,0.5-1.1,1.1-1.1c0.7,0,1.1,0.5,1.1,1.1v71.1
			C74.6,75,74.2,75.5,73.5,75.5z"/>
	</g>
</g>
</svg>
