<?xml version="1.0" encoding="utf-8"?>
<!-- Generator: Adobe Illustrator 19.2.1, SVG Export Plug-In . SVG Version: 6.00 Build 0)  -->
<svg version="1.1" id="Layer_1" xmlns="http://www.w3.org/2000/svg" xmlns:xlink="http://www.w3.org/1999/xlink" x="0px" y="0px"
	 viewBox="0 0 100 100" style="enable-background:new 0 0 100 100;" xml:space="preserve">
<style type="text/css">
	.st0{clip-path:url(#SVGID_2_);fill:#dcdcdc;}
	.st1{fill:#dcdcdc;}
</style>
<g>
	<g>
		<g>
			<g>
				<g>
					<defs>
						<rect id="SVGID_1_" x="1.6" y="1.4" width="96.5" height="96.7"/>
					</defs>
					<clipPath id="SVGID_2_">
						<use xlink:href="#SVGID_1_"  style="overflow:visible;"/>
					</clipPath>
					<path class="st0" d="M98.2,65.2V34c0-0.8-0.5-1.4-1.1-1.5l-14.4-4.2c1.1-2.7,1.8-5.4,1.8-8c0-10.5-8.6-18.9-18.9-18.9
						S46.6,10,46.6,20.4c0,2.6,0.8,5.3,1.8,8l-14,4.2L3.7,23.4c-0.5-0.2-0.9,0-1.4,0.3s-0.6,0.8-0.6,1.2v62.3c0,0.8,0.5,1.4,1.1,1.5
						L34,97.8l0,0l0,0h0.2l0,0h0.2h0.2l0,0h0.2l0,0l0,0l30.1-8.9c0.2,0.2,0.5,0.2,0.6,0.2c0.2,0,0.5,0,0.6-0.2l30.1,8.9
						c0.2,0,0.3,0,0.5,0c0.3,0,0.6-0.2,0.9-0.3c0.5-0.3,0.6-0.8,0.6-1.2V65.2C98.2,65.3,98.2,65.2,98.2,65.2L98.2,65.2z M95.2,35.2
						v28L67,54.9v-4.4c2-2.1,9.9-10.5,14.3-19.2L95.2,35.2z M65.5,4.6c8.7,0,15.9,7.1,15.9,15.9c0,2.6-0.9,5.3-2.1,8.1
						c0,0.2-0.2,0.2-0.2,0.3c-3.8,7.8-10.8,15.9-13.7,18.8c-2.7-2.9-9.9-11-13.7-18.8c0-0.2-0.2-0.3-0.2-0.3
						c-1.4-2.9-2.1-5.6-2.1-8.1C49.6,11.6,56.7,4.6,65.5,4.6L65.5,4.6z M64,50.4v4.4l-28.1,8.3v-28L49.6,31
						C54.1,40.1,61.9,48.5,64,50.4L64,50.4z M4.8,58.1l10.7,3.2c0.2,0,0.3,0,0.5,0c0.6,0,1.2-0.5,1.5-1.1c0.3-0.8-0.2-1.7-1.1-2
						L4.8,54.8v-28l28.1,8.3v28l-10.7-3.2c-0.8-0.3-1.7,0.2-2,1.1c-0.3,0.8,0.2,1.7,1.1,2l11.6,3.5v28L4.8,86.1
						C4.8,86.1,4.8,58.1,4.8,58.1z M67,86.1V74.9c0-0.9-0.8-1.5-1.5-1.5c-0.9,0-1.5,0.8-1.5,1.5v11.1l-28.1,8.3v-28L64,58.1v10.7
						c0,0.9,0.8,1.5,1.5,1.5c0.9,0,1.5-0.8,1.5-1.5V58.1l28.1,8.3v28L67,86.1z"/>
				</g>
			</g>
		</g>
	</g>
	<path class="st1" d="M65.5,31.2c6,0,10.8-4.8,10.8-10.8S71.6,9.5,65.5,9.5c-6,0-10.8,4.8-10.8,10.8S59.5,31.2,65.5,31.2L65.5,31.2z
		 M65.5,12.7c4.2,0,7.7,3.5,7.7,7.7S69.7,28,65.5,28s-7.7-3.5-7.7-7.7S61.3,12.7,65.5,12.7L65.5,12.7z"/>
</g>
</svg>
