<?xml version="1.0" encoding="utf-8"?>
<!-- Generator: Adobe Illustrator 19.2.1, SVG Export Plug-In . SVG Version: 6.00 Build 0)  -->
<svg version="1.1" id="Layer_1" xmlns="http://www.w3.org/2000/svg" xmlns:xlink="http://www.w3.org/1999/xlink" x="0px" y="0px"
	 viewBox="0 0 100 100" style="enable-background:new 0 0 100 100;" xml:space="preserve">
<style type="text/css">
	.st0{fill:#ffffff;}
</style>
<g>
	<path class="st0" d="M22.9,90.9c0,4.3-3.4,7.4-7.4,7.4c-4.3,0-7.4-3.4-7.4-7.4c0-4.3,3.4-7.4,7.4-7.4S22.9,86.9,22.9,90.9
		L22.9,90.9z"/>
	<path class="st0" d="M77.7,90.9c0,4.3-3.4,7.4-7.4,7.4c-4.3,0-7.4-3.4-7.4-7.4c0-4.3,3.4-7.4,7.4-7.4
		C74.4,83.6,77.7,86.9,77.7,90.9L77.7,90.9z"/>
	<path class="st0" d="M85.7,2L82.9,18H1.1l5.5,34c0.6,3.7,4.3,6.7,8,6.7h61.6l-1.8,11.6H7.9v6.4h72L91.2,8.2h7.7V1.7L85.7,2L85.7,2z
		"/>
</g>
</svg>
