<?xml version="1.0" encoding="utf-8"?>
<!-- Generator: Adobe Illustrator 19.2.1, SVG Export Plug-In . SVG Version: 6.00 Build 0)  -->
<svg version="1.1" id="Layer_1" xmlns="http://www.w3.org/2000/svg" xmlns:xlink="http://www.w3.org/1999/xlink" x="0px" y="0px"
	 viewBox="0 0 100 86.2" style="enable-background:new 0 0 100 86.2;" xml:space="preserve">
<style type="text/css">
	.st0{fill:#666666;}
</style>
<g>
	<path class="st0" d="M93.2,37.6h-2.4v-14c0-5.7-4.7-10.2-10.2-10.2h-2.2V8.2c0-3.7-3.2-6.9-6.9-6.9H9.7c-4.5,0-8.5,3.7-8.5,8.3
		v68.3c0,3.7,3.2,6.9,6.9,6.9h72.5c5.7,0,10.2-4.7,10.2-10.2v-14h2.4c3,0,5.5-2.4,5.5-5.5V42.9C98.8,39.9,96.2,37.6,93.2,37.6
		L93.2,37.6z M9.7,6h61.8c1.2,0,2.2,1,2.2,2.2v5.1h-64c-2,0-3.7-1.6-3.7-3.7C6,7.6,7.8,6,9.7,6L9.7,6z M86.1,74.4
		c0,3-2.6,5.5-5.5,5.5H8.1c-1.2,0-2.2-1-2.2-2.2V17.3c1.2,0.6,2.4,0.8,3.7,0.8h70.9c3,0,5.5,2.6,5.5,5.5v14H69.8
		c-3,0-5.5,2.4-5.5,5.5v12.2c0,3,2.4,5.5,5.5,5.5h16.3V74.4z M93.8,55.1c0,0.4-0.2,0.6-0.6,0.6H69.8c-0.4,0-0.6-0.2-0.6-0.6V42.9
		c0-0.4,0.2-0.6,0.6-0.6h23.4c0.4,0,0.6,0.2,0.6,0.6V55.1z"/>
</g>
</svg>
