<?xml version="1.0" encoding="utf-8"?>
<!-- Generator: Adobe Illustrator 19.2.1, SVG Export Plug-In . SVG Version: 6.00 Build 0)  -->
<svg version="1.1" id="Layer_1" xmlns="http://www.w3.org/2000/svg" xmlns:xlink="http://www.w3.org/1999/xlink" x="0px" y="0px"
	 viewBox="0 0 81.8 100" style="enable-background:new 0 0 81.8 100;" xml:space="preserve">
<style type="text/css">
	.st0{fill:#06589c;}
</style>
<g>
	<g>
		<g>
			<rect x="36.5" y="45.6" class="st0" width="6.9" height="2.2"/>
		</g>
		<g>
			<path class="st0" d="M75.5,97.8h-71c-1.1,0-1.9-0.9-1.9-1.9V38c0-1.1,0.9-1.9,1.9-1.9h71c1.1,0,1.9,0.9,1.9,1.9v57.8
				C77.5,96.9,76.6,97.8,75.5,97.8z M6.2,93.9h67.4V39.7H6.2V93.9z"/>
		</g>
		<g>
			<rect x="4.3" y="53.1" class="st0" width="71.7" height="2.2"/>
		</g>
	</g>
	<g>
		<g>
			<path class="st0" d="M40,39.9c-15.8,0-28.8-9.5-30.1-22.3c0-0.4,0-1.1,0.4-1.5s0.9-0.6,1.3-0.6h56.7c0.4,0,1.1,0.2,1.3,0.6
				c0.4,0.4,0.4,0.9,0.4,1.5C68.8,30.2,55.8,39.9,40,39.9z M13.8,19.1c2.4,9.7,13.4,17.1,26.2,17.1s23.8-7.4,26.2-17.1H13.8z"/>
		</g>
		<g>
			<path class="st0" d="M43,18.3h-6.3c-0.6,0-1.1-0.4-1.1-1.1V3.3c0-0.6,0.4-1.1,1.1-1.1H43c0.6,0,1.1,0.4,1.1,1.1v13.9
				C44.1,17.8,43.7,18.3,43,18.3z M37.8,16.1h4.1V4.4h-4.1V16.1z"/>
		</g>
		<g>
			<rect x="43.2" y="6.1" class="st0" width="5.4" height="2.2"/>
		</g>
	</g>
</g>
</svg>
