<?xml version="1.0" encoding="utf-8"?>
<!-- Generator: Adobe Illustrator 19.2.1, SVG Export Plug-In . SVG Version: 6.00 Build 0)  -->
<svg version="1.1" id="Layer_1" xmlns="http://www.w3.org/2000/svg" xmlns:xlink="http://www.w3.org/1999/xlink" x="0px" y="0px"
	 viewBox="0 0 92.5 100" style="enable-background:new 0 0 92.5 100;" xml:space="preserve">
<style type="text/css">
	.st0{clip-path:url(#SVGID_2_);fill:#c1c1c1;}
</style>
<g>
	<g>
		<g>
			<g>
				<defs>
					<rect id="SVGID_1_" x="-3.3" y="1.1" width="93.8" height="98.9"/>
				</defs>
				<clipPath id="SVGID_2_">
					<use xlink:href="#SVGID_1_"  style="overflow:visible;"/>
				</clipPath>
				<path class="st0" d="M81,69.1C75.3,64,69.1,60.9,63.4,66L60,69.1c-2.4,2-7.1,12.2-25.1-8.5s-7.5-24.1-4.8-26.2l3.4-3.1
					c5.8-5.1,3.4-11.2-0.7-17.7l-2.4-4.1c-4.1-6.5-8.8-10.5-14.3-5.8l-3.1,2.7c-2.4,1.7-9.5,7.8-11.2,19.4
					c-2,13.6,4.4,29.6,19.4,46.6c15,17.3,29.6,25.8,43.5,25.8c11.6,0,18.4-6.5,20.7-8.5l3.1-2.7c5.8-5.1,2-10.2-3.7-15L81,69.1z"/>
			</g>
		</g>
	</g>
</g>
</svg>
