<?xml version="1.0" encoding="utf-8"?>
<!-- Generator: Adobe Illustrator 19.2.1, SVG Export Plug-In . SVG Version: 6.00 Build 0)  -->
<svg version="1.1" id="Layer_1" xmlns="http://www.w3.org/2000/svg" xmlns:xlink="http://www.w3.org/1999/xlink" x="0px" y="0px"
	 viewBox="0 0 69.5 100" style="enable-background:new 0 0 69.5 100;" xml:space="preserve">
<style type="text/css">
	.st0{fill:#06589c;}
</style>
<g>
	<g>
		<path class="st0" d="M50.4,98H19.2c-0.4,0-1-0.2-1.2-0.6c-0.4-0.4-0.4-0.8-0.4-1.4l5.6-55.6C13.8,36.1,4,27.1,3.4,16.7
			c0-0.4,0.2-1,0.4-1.2c0.4-0.4,0.8-0.6,1.2-0.6h59.6c0.4,0,1,0.2,1.2,0.6c0.4,0.4,0.4,0.8,0.4,1.2c-0.8,10.4-10.6,19.3-19.7,23.7
			L52,96c0,0.4-0.2,1-0.4,1.4C51.4,97.8,50.8,98,50.4,98z M21,94.6h27.5l-5.6-54.8c0-0.8,0.4-1.4,1-1.8c8.4-3.6,16.9-11.2,18.7-19.5
			H6.8C8.4,26.9,17.2,34.5,25.5,38c0.6,0.2,1.2,1,1,1.8L21,94.6z"/>
	</g>
	<g>
		<path class="st0" d="M37.9,17.7h-6.2c-0.6,0-1-0.4-1-1V3.4c0-0.6,0.4-1,1-1h6.2c0.6,0,1,0.4,1,1v13.3
			C38.9,17.3,38.3,17.7,37.9,17.7z M32.7,15.9h4.2V4.4h-4.2V15.9z"/>
	</g>
	<g>
		<rect x="32.1" y="10.6" class="st0" width="5.2" height="2"/>
	</g>
</g>
</svg>
