<?xml version="1.0" encoding="utf-8"?>
<!-- Generator: Adobe Illustrator 19.2.1, SVG Export Plug-In . SVG Version: 6.00 Build 0)  -->
<svg version="1.1" id="Layer_1" xmlns="http://www.w3.org/2000/svg" xmlns:xlink="http://www.w3.org/1999/xlink" x="0px" y="0px"
	 viewBox="0 0 88 100" style="enable-background:new 0 0 88 100;" xml:space="preserve">
<style type="text/css">
	.st0{clip-path:url(#SVGID_2_);fill:#666666;}
	.st1{clip-path:url(#SVGID_4_);fill:#666666;}
</style>
<g>
	<g>
		<g>
			<g>
				<defs>
					<rect id="SVGID_1_" x="1.8" y="1.2" width="84.1" height="97.3"/>
				</defs>
				<clipPath id="SVGID_2_">
					<use xlink:href="#SVGID_1_"  style="overflow:visible;"/>
				</clipPath>
				<path class="st0" d="M54.8,41.2L38.6,57.4l-5.8-5.8c-1.1-1.1-2.8-1.1-3.9,0c-1.1,1.1-1.1,2.8,0,3.9l7.7,7.7
					c0.6,0.6,1.3,0.7,1.9,0.7c0.6,0,1.3-0.2,1.9-0.7l18.3-18.3c1.1-1.1,1.1-2.8,0-3.9C57.6,40,55.9,40,54.8,41.2L54.8,41.2z"/>
			</g>
		</g>
		<g>
			<g>
				<defs>
					<rect id="SVGID_3_" x="1.8" y="1.2" width="84.1" height="97.3"/>
				</defs>
				<clipPath id="SVGID_4_">
					<use xlink:href="#SVGID_3_"  style="overflow:visible;"/>
				</clipPath>
				<path class="st1" d="M85.8,33.5V20.6c0-1.9-0.7-4.3-4.3-4.9c-0.7-0.2-1.5-0.2-2.2-0.4c-2.2-0.2-4.5-0.6-6.7-0.9
					c-8.4-1.9-16.3-5.6-25.2-11.8c-1.1-0.7-2.1-1.5-3.5-1.5c-1.3,0-2.2,0.7-3.5,1.5C28.5,10.9,17.6,15,6.6,15.8
					c-3.4,0.2-4.9,1.9-4.9,5.2v8.4c0,7.7,0,15.7,0,23.7c0,2.8,0.4,5.6,1.1,8.6c1.5,6.7,5,12.9,10.8,18.7
					c7.3,7.5,16.6,13.1,28.2,17.6c0.6,0.2,1.1,0.4,1.7,0.4c0.7,0,1.5-0.2,2.2-0.4c0.7-0.4,1.3-0.6,2.1-0.9c2.8-1.3,5.8-2.4,8.6-3.9
					c9.3-5,16.4-10.8,21.7-17.9c4.5-6.2,6.9-12.3,7.3-19.1c0-1.3,0.2-2.6,0.2-4.3l0,0l0.2-13.1v-0.4V33.5z M80.4,38v0.6l-0.2,12.7
					v0.4c0,1.5,0,2.8-0.2,4.1c-0.2,5.4-2.2,10.6-6.2,16.1C69.2,78.1,62.7,83.6,54.1,88c-2.6,1.3-5.4,2.6-8.2,3.7
					c-0.7,0.4-1.3,0.6-2.1,0.9l0,0C33,88.6,24.4,83.4,17.6,76.5c-5-5-8.2-10.3-9.5-16.1c-0.6-2.6-0.9-5-0.9-7.5c0-7.8,0-15.9,0-23.5
					v-8.2c12.1-0.7,23.5-5.2,36.2-14c0.2,0,0.2-0.2,0.4-0.2C44,7,44,7.2,44.2,7.2c9.3,6.5,18.1,10.6,27.1,12.5
					c2.4,0.6,4.9,0.7,7.3,1.1c0.6,0,1.3,0.2,1.9,0.2V38z"/>
			</g>
		</g>
	</g>
</g>
</svg>
