<?xml version="1.0" encoding="utf-8"?>
<!-- Generator: Adobe Illustrator 19.2.1, SVG Export Plug-In . SVG Version: 6.00 Build 0)  -->
<svg version="1.1" id="Layer_1" xmlns="http://www.w3.org/2000/svg" xmlns:xlink="http://www.w3.org/1999/xlink" x="0px" y="0px"
	 viewBox="0 0 96 100" style="enable-background:new 0 0 96 100;" xml:space="preserve">
<style type="text/css">
	.st0{fill:#06589c;}
</style>
<path class="st0" d="M30.6,30.8c0,0.7-0.2,1.3-0.7,1.8s-1.1,0.7-1.8,0.7H17.9c-0.7,0-1.3-0.2-1.8-0.7c-0.4-0.4-0.7-1.1-0.7-1.8v-7.7
	c0-0.7,0.2-1.3,0.7-1.8c0.4-0.4,1.1-0.7,1.8-0.7h10.3c0.7,0,1.3,0.2,1.8,0.7s0.7,1.1,0.7,1.8V30.8L30.6,30.8z M6.7,95.5h76
	c0.9,0,1.5,0.7,1.5,1.5l0,0c0,0.9-0.7,1.5-1.5,1.5h-76c-0.9,0-1.5-0.7-1.5-1.5l0,0C5.2,96.1,6.1,95.5,6.7,95.5L6.7,95.5z M75.8,47.9
	L75.8,47.9l0.4-0.4c1.1-1.1,2.4-1.5,3.7-1.5c1.3,0,2.6,0.4,3.7,1.5l9.4,9.4c1.1,1.1,1.5,2.4,1.5,3.7s-0.4,2.6-1.5,3.7l0,0
	c-1.1,1.1-2.4,1.5-3.7,1.5s-2.6-0.4-3.7-1.5l-9.4-9.4c-1.1-1.1-1.5-2.4-1.5-3.7S75.1,48.8,75.8,47.9L75.8,47.9z M19.9,47.9
	L19.9,47.9l-0.4-0.4c-1.1-1.1-2.4-1.5-3.7-1.5s-2.6,0.4-3.7,1.5l-9.4,9.4C1.5,58,1,59.3,1,60.6s0.4,2.6,1.5,3.7l0,0
	c1.1,1.1,2.4,1.5,3.7,1.5s2.6-0.4,3.7-1.5l9.4-9.4c1.1-1.1,1.5-2.4,1.5-3.7S20.5,48.8,19.9,47.9L19.9,47.9z M15.5,49
	c0.4,0,1.1,0.2,1.5,0.4l0,0c0.4,0.4,0.7,1.1,0.7,1.5c0,0.7-0.2,1.1-0.7,1.5l-9.4,9.4c-0.4,0.4-1.1,0.7-1.5,0.7
	c-0.7,0-1.1-0.2-1.5-0.7s-0.7-1.1-0.7-1.5c0-0.7,0.2-1.1,0.7-1.5l9.4-9.4C14.4,49.2,15.1,49,15.5,49L15.5,49z M34.8,65.2
	c-2.6-1.8-5.5-3.3-8.3-4.6c-2.8-1.3-5.3-1.5-7-0.9c-1.3,0.4-2.4,1.1-3.3,2.2c-0.7,1.1-1.1,2.4-1.3,3.7c-0.2,2.2,0.7,4.6,2.4,7
	c2,2.6,4.4,4.8,6.8,7.2c4.6,4.4,9.2,9,9.4,13.6h3.1c-0.2-6.1-5.3-11-10.3-15.8c-2.4-2.2-4.8-4.6-6.6-7c-1.3-1.5-1.8-3.3-1.8-4.8
	c0-0.9,0.2-1.5,0.7-2s0.9-0.9,1.5-1.1c1.3-0.4,2.8-0.2,4.8,0.7c2.6,1.1,5.3,2.8,7.9,4.4c6.8,4.2,10.7,6.4,14.7,6.4s7.9-2.2,14.7-6.4
	c2.6-1.5,5.3-3.3,7.9-4.4c2-0.9,3.7-1.1,4.8-0.7c0.7,0.2,1.3,0.7,1.5,1.1c0.4,0.7,0.7,1.3,0.7,2c0,1.5-0.4,3.3-1.8,4.8
	c-1.8,2.4-4.2,4.6-6.6,7c-5,4.8-10.1,9.9-10.3,15.8h3.1c0.2-4.8,4.8-9.2,9.4-13.6c2.4-2.4,5-4.8,6.8-7.2c1.8-2.2,2.4-4.8,2.4-7
	c0-1.3-0.4-2.6-1.3-3.7c-0.9-1.1-2-2-3.3-2.2c-1.8-0.4-4.2-0.4-7,0.9c-2.8,1.3-5.7,2.8-8.3,4.6c-6.4,3.9-9.6,5.7-13.1,5.7
	C44.4,70.9,40.9,69.2,34.8,65.2L34.8,65.2z M80.2,49c-0.4,0-1.1,0.2-1.5,0.4l0,0C78.2,49.9,78,50.5,78,51c0,0.7,0.2,1.1,0.7,1.5
	l9.4,9.4c0.4,0.4,1.1,0.7,1.5,0.7c0.7,0,1.1-0.2,1.5-0.7s0.7-1.1,0.7-1.5c0-0.7-0.2-1.1-0.7-1.5l-9.4-9.4C81.3,49.2,80.6,49,80.2,49
	L80.2,49z M16.8,18.6C17.3,10.7,22.1,5.4,28,3c2.4-0.9,5-1.5,7.7-1.5c2.6,0,5.3,0.4,7.5,1.5c6.1,2.4,11,8.1,11,17.1v46l-0.7,0.4
	c-2,1.1-3.7,1.8-5.5,1.8c-1.8,0-3.5-0.7-5.5-1.8l-0.7-0.4v-46c0-3.1-1.5-5-3.5-5.7c-0.9-0.4-1.8-0.4-2.6-0.4s-1.8,0.2-2.6,0.4
	c-1.8,0.7-3.1,2.2-3.5,4.2h-3.1c0.4-3.5,2.8-5.9,5.7-7c1.1-0.4,2.4-0.7,3.7-0.7s2.6,0.2,3.7,0.7c3.1,1.3,5.5,4.2,5.5,8.5v44.3
	c1.1,0.7,2,0.9,3.1,0.9c0.9,0,2-0.2,3.1-0.9V20.1c0-7.5-3.9-12.1-9-14.2c-2-0.9-4.2-1.3-6.4-1.3S31.5,5,29.5,5.8
	c-4.8,2-8.5,6.1-9.2,12.7H16.8L16.8,18.6z M18.4,30.2h9.2v-6.6h-9.2V30.2L18.4,30.2z"/>
</svg>
