<?xml version="1.0" encoding="utf-8"?>
<!-- Generator: Adobe Illustrator 19.2.1, SVG Export Plug-In . SVG Version: 6.00 Build 0)  -->
<svg version="1.1" id="Layer_1" xmlns="http://www.w3.org/2000/svg" xmlns:xlink="http://www.w3.org/1999/xlink" x="0px" y="0px"
	 viewBox="0 0 100 83.2" style="enable-background:new 0 0 100 83.2;" xml:space="preserve">
<style type="text/css">
	.st0{fill:#ffffff;}
</style>
<g>
	<path class="st0" d="M98.4,77.7V19.5c0-2.1-1.8-3.5-3.5-3.5H76.6c-2.1,0-3.5,1.8-3.5,3.5v58.3c0,2.1,1.8,3.5,3.5,3.5h18.3
		C96.7,81.6,98.4,79.8,98.4,77.7L98.4,77.7z"/>
	<path class="st0" d="M39.8,81.6h20c2.1,0,3.5-1.8,3.5-3.5V5c0-2.1-1.8-3.5-3.5-3.5h-20c-2.1,0-3.5,1.8-3.5,3.5v73
		C36.3,79.8,37.8,81.6,39.8,81.6L39.8,81.6z"/>
	<path class="st0" d="M5.1,30.4c-2.1,0-3.5,1.8-3.5,3.5v43.9c0,2.1,1.8,3.5,3.5,3.5h18.3c2.1,0,3.5-1.8,3.5-3.5V33.9
		c0-2.1-1.8-3.5-3.5-3.5H5.1L5.1,30.4z"/>
</g>
</svg>
