<?xml version="1.0" encoding="utf-8"?>
<!-- Generator: Adobe Illustrator 19.2.1, SVG Export Plug-In . SVG Version: 6.00 Build 0)  -->
<svg version="1.1" id="Layer_1" xmlns="http://www.w3.org/2000/svg" xmlns:xlink="http://www.w3.org/1999/xlink" x="0px" y="0px"
	 viewBox="0 0 100 100" style="enable-background:new 0 0 100 100;" xml:space="preserve">
<style type="text/css">
	.st0{fill:#adb8c4;}
</style>
<g>
	<path class="st0" d="M50,1C23.2,1,1.1,23.1,1.1,49.9s22,48.9,48.9,48.9s48.9-22,48.9-48.9C98.9,22.8,76.8,1,50,1L50,1z M50,88.2
		c-21.1,0-38.3-17.2-38.3-38.3S28.9,11.6,50,11.6s38.3,17.2,38.3,38.3S71.4,88.2,50,88.2L50,88.2z"/>
	<path class="st0" d="M75.5,48.3h-22V21.8c0-2.2-1.9-4.2-4.2-4.2s-4.2,1.9-4.2,4.2v30.3c0,2.2,1.9,4.2,4.2,4.2h25.9
		c2.2,0,4.2-1.9,4.2-4.2C79.4,50.2,77.8,48.3,75.5,48.3L75.5,48.3z"/>
</g>
</svg>
