<?xml version="1.0" encoding="utf-8"?>
<!-- Generator: Adobe Illustrator 19.2.1, SVG Export Plug-In . SVG Version: 6.00 Build 0)  -->
<svg version="1.1" id="Layer_1" xmlns="http://www.w3.org/2000/svg" xmlns:xlink="http://www.w3.org/1999/xlink" x="0px" y="0px"
	 viewBox="0 0 79.8 100" style="enable-background:new 0 0 79.8 100;" xml:space="preserve">
<style type="text/css">
	.st0{clip-path:url(#SVGID_2_);fill:#235e9e;}
	.st1{clip-path:url(#SVGID_4_);fill:#235e9e;}
</style>
<g>
	<g>
		<g>
			<g>
				<g>
					<defs>
						<rect id="SVGID_1_" x="1" y="1.4" width="77.3" height="96.7"/>
					</defs>
					<clipPath id="SVGID_2_">
						<use xlink:href="#SVGID_1_"  style="overflow:visible;"/>
					</clipPath>
					<path class="st0" d="M39.8,52.8c14.2,0,19.4-14.2,20.7-26.2c1.6-14.6-5.2-25.5-20.7-25.5s-22.3,11-20.7,25.5
						C20.1,38.6,25.2,52.8,39.8,52.8L39.8,52.8z"/>
				</g>
			</g>
		</g>
		<g>
			<g>
				<g>
					<defs>
						<rect id="SVGID_3_" x="1" y="1.4" width="77.3" height="96.7"/>
					</defs>
					<clipPath id="SVGID_4_">
						<use xlink:href="#SVGID_3_"  style="overflow:visible;"/>
					</clipPath>
					<path class="st1" d="M78.3,86.8c0-4.5-0.6-9.1-1.6-13.6c-1-5.5-2.3-13.6-6.8-16.8c-2.6-1.9-6.5-2.6-9.4-3.9
						c-1.6-0.6-2.9-1.3-4.2-1.9c-4.2,4.9-10,7.1-16.5,7.1s-12.3-2.6-16.5-7.1c-1.3,0.6-2.6,1.3-4.2,1.9c-3.2,1.3-6.8,1.9-9.4,3.9
						C4.9,59.9,3.9,68,2.9,73.2c-0.6,4.5-1.3,9.1-1.6,13.6c0,3.6,1.6,3.9,4.5,5.2c3.6,1.3,7.4,2.3,11.3,3.2
						c7.4,1.6,15.2,2.9,22.6,2.9c7.8,0,15.2-1.3,22.6-2.9c3.9-1,7.8-1.9,11.3-3.2C76.6,91,78.6,90.3,78.3,86.8L78.3,86.8z"/>
				</g>
			</g>
		</g>
	</g>
</g>
</svg>
