<?xml version="1.0" encoding="utf-8"?>
<!-- Generator: Adobe Illustrator 19.2.1, SVG Export Plug-In . SVG Version: 6.00 Build 0)  -->
<svg version="1.1" id="Layer_1" xmlns="http://www.w3.org/2000/svg" xmlns:xlink="http://www.w3.org/1999/xlink" x="0px" y="0px"
	 viewBox="0 0 100 62" style="enable-background:new 0 0 100 62;" xml:space="preserve">
<style type="text/css">
	.st0{fill:#06589c;}
</style>
<g>
	<g>
		<path class="st0" d="M51.6,56.8c-7.6,0-15.6-0.5-24.8-1.4c-8-0.9-13.3-7.1-14.7-16.8L6.4,11.1c-0.2-0.7,0-1.4,0.5-1.8
			C7.3,8.8,8,8.6,8.7,8.8c6.9,1.6,13.8,3.7,20.2,5.5c15.9,4.6,31,9,47.3,9c5.1,0,9.9-0.5,14.9-1.4c0.7-0.2,1.4,0.2,1.8,0.7
			c0.5,0.5,0.5,1.1,0.5,1.8l-5.7,17.7c-1.4,7.6-6.4,12.6-13.3,13.3C66.1,56.6,59,56.8,51.6,56.8z M10.7,13.4l5.1,24.8
			c0.9,8,5.1,13.1,11.3,13.8c17.9,1.8,30.6,1.8,46.6,0.2c5.1-0.5,9-4.4,10.1-10.3v-0.2l4.8-14.9c-4.1,0.7-8.3,0.9-12.6,0.9
			c-16.8,0-32.2-4.4-48.2-9.2C22.4,16.4,16.7,14.8,10.7,13.4z"/>
	</g>
	<g>
		<path class="st0" d="M76.4,27.4L76.4,27.4c-17.7,0-34-4.8-51.2-10.1c-7.4-2.3-14.9-4.4-22.5-6.4C1.8,10.6,1.3,9.9,1.3,9
			c0-3.9,3.2-7.1,7.1-7.1c0.7,0,1.4,0,1.8,0.2c5.5,1.4,10.8,3,16.1,4.6c17,5.1,33.1,9.9,50.1,9.9c4.6,0,9.4-0.5,13.8-1.1
			c4.6-0.7,8.5,2.8,8.5,7.1V23c0,0.9-0.7,1.6-1.4,1.8C90.2,26.5,83.5,27.4,76.4,27.4z M5.2,7.9c7.1,1.8,14.2,3.9,21.1,6
			c17,5.1,33.1,9.9,50.1,9.9l0,0c6.2,0,12.4-0.7,18.4-2.1c-0.5-1.6-2.1-2.5-3.9-2.3c-4.6,0.7-9.6,1.1-14.5,1.1
			c-17.7,0-34-4.8-51.2-9.9C19.9,9,14.6,7.4,9.3,6C7.5,5.3,5.9,6.3,5.2,7.9z"/>
	</g>
	<g>
		<path class="st0" d="M27.5,53.1h-5.7c-0.2,0-0.5,0.2-0.5,0.2L19,58.6c0,0.2,0,0.5,0,0.5c0,0.2,0.2,0.2,0.5,0.2h5.7
			c0.2,0,0.5-0.2,0.5-0.2l2.3-5.3c0-0.2,0-0.5,0-0.5C27.9,53.1,27.7,53.1,27.5,53.1z"/>
		<path class="st0" d="M78.5,58.6l-2.3-5.3c0-0.2-0.2-0.2-0.5-0.2H70c-0.2,0-0.5,0-0.5,0.2s0,0.2,0,0.5l2.3,5.3
			c0,0.2,0.2,0.2,0.5,0.2H78c0.2,0,0.5,0,0.5-0.2C78.5,59.1,78.5,58.9,78.5,58.6z"/>
	</g>
</g>
</svg>
