<?xml version="1.0" encoding="utf-8"?>
<!-- Generator: Adobe Illustrator 19.2.1, SVG Export Plug-In . SVG Version: 6.00 Build 0)  -->
<svg version="1.1" id="Layer_1" xmlns="http://www.w3.org/2000/svg" xmlns:xlink="http://www.w3.org/1999/xlink" x="0px" y="0px"
	 viewBox="0 0 100 100" style="enable-background:new 0 0 100 100;" xml:space="preserve">
<style type="text/css">
	.st0{clip-path:url(#SVGID_2_);fill:#010202;}
</style>
<g>
	<g>
		<g>
			<defs>
				<rect id="SVGID_1_" x="35.6" y="36" width="27.6" height="29.1"/>
			</defs>
			<clipPath id="SVGID_2_">
				<use xlink:href="#SVGID_1_"  style="overflow:visible;"/>
			</clipPath>
			<path class="st0" d="M60.4,56c-1.7-1.5-3.5-2.4-5.2-0.9l-1,0.9c-0.7,0.6-2.1,3.6-7.4-2.5c-5.3-6.1-2.2-7.1-1.4-7.7l1-0.9
				c1.7-1.5,1-3.3-0.2-5.2l-0.7-1.2c-1.2-1.9-2.6-3.1-4.2-1.7l-0.9,0.8c-0.7,0.5-2.8,2.3-3.3,5.7c-0.6,4,1.3,8.7,5.7,13.7
				c4.4,5.1,8.7,7.6,12.8,7.6c3.4,0,5.4-1.9,6.1-2.5l0.9-0.8c1.7-1.5,0.6-3-1.1-4.4L60.4,56z"/>
		</g>
	</g>
</g>
</svg>
