<?xml version="1.0" encoding="utf-8"?>
<!-- Generator: Adobe Illustrator 19.2.1, SVG Export Plug-In . SVG Version: 6.00 Build 0)  -->
<svg version="1.1" id="Layer_1" xmlns="http://www.w3.org/2000/svg" xmlns:xlink="http://www.w3.org/1999/xlink" x="0px" y="0px"
	 viewBox="0 0 100 100" style="enable-background:new 0 0 100 100;" xml:space="preserve">
<style type="text/css">
	.st0{fill:#05589c;}
</style>
<g>
	<g>
		<g>
			<g>
				<path class="st0" d="M50,98.6C23.3,98.6,1.4,76.7,1.4,50S23.3,1.4,50,1.4S98.6,23.3,98.6,50C98.7,76.7,76.8,98.6,50,98.6z
					 M50,3.2C24.2,3.2,3.2,24.3,3.2,50c0,25.8,21.1,46.8,46.8,46.8c25.8,0,46.8-21.1,46.8-46.8C96.9,24.2,75.8,3.2,50,3.2z"/>
			</g>
		</g>
	</g>
	<g>
		<g>
			<g>
				<path class="st0" d="M74,52.9L74,52.9L74,52.9l-0.1-0.5c0-0.1-0.1-0.3-0.1-0.5c0-0.1-0.1-0.3-0.1-0.5l-0.1-0.3l0-0.1
					c-0.1-0.1-0.1-0.3-0.3-0.4c-0.3-0.3-0.5-0.5-0.8-0.6c-0.3-0.1-0.4-0.3-0.6-0.3c0.1-0.3,0.3-0.6,0.5-1c0.1-0.1,0.1-0.4,0.1-0.5
					c0.1-0.1,0.1-0.4,0.1-0.5c0-0.3,0-0.4,0-0.6c0-0.3,0-0.5-0.1-0.6v-0.1v-0.1l0,0V46l0,0l0,0l-0.1-0.1c-0.1-0.3-0.1-0.4-0.3-0.5
					c-0.1-0.1-0.3-0.4-0.3-0.5c-0.1-0.1-0.3-0.3-0.4-0.5c-0.1-0.1-0.3-0.3-0.5-0.4c-0.1-0.1-0.3-0.3-0.5-0.3c-0.1,0-0.1-0.1-0.1-0.1
					c0.1-0.1,0.1-0.3,0.3-0.4c0.1-0.3,0.1-0.5,0.3-0.6c0.1-0.3,0.1-0.5,0.1-0.6c0-0.1,0-0.3,0-0.4s0-0.3,0-0.4v-0.4l-0.1-0.4
					c0-0.4-0.1-0.6-0.1-0.9l-0.1-0.3v-0.1V39v-0.1l-0.1-0.1c-0.1-0.1-0.1-0.3-0.3-0.3l-0.3-0.3c-0.1-0.1-0.1-0.1-0.3-0.3
					c-0.1-0.1-0.1-0.1-0.3-0.3c-0.3-0.1-0.4-0.3-0.6-0.5c-0.3-0.1-0.4-0.3-0.6-0.3c-0.3-0.1-0.5-0.1-0.6-0.3
					c-0.3-0.1-0.5-0.1-0.6-0.1c-0.1,0-0.3,0-0.4-0.1c0.3-0.6,0.4-1.4,0.3-2.2c-0.1-0.5-0.1-1.2-0.5-1.7c-0.3-0.5-0.6-1-1-1.4
					c-0.3-0.3-0.5-0.4-0.6-0.5c0,0-0.1-0.1-0.3-0.1c-0.1-0.1-0.3-0.1-0.5-0.1c-0.1-0.1-0.3-0.1-0.4-0.1h-0.1l0,0h-0.1H63
					c-0.1,0-0.1,0-0.3,0c-0.3,0-0.6,0-0.9,0.1c-1,0.1-2,0.5-2.9,0.9c-1.8,0.8-3.5,1.7-5.2,2.6c-0.9,0.5-1.7,1-2.6,1.4
					c-0.4,0.3-0.9,0.5-1.3,0.8l-0.3,0.1l0.1-1.4c0.1-1,0.1-2,0-2.9c-0.1-2-0.5-3.8-0.9-5.8c-0.3-1-0.5-1.9-0.9-2.8l-0.3-0.6v-0.8
					c-0.1-0.3-0.3-0.4-0.4-0.6l0,0c0-0.1,0,0,0-0.1V21l-0.1-0.1l-0.1-0.1c-0.1-0.1-0.1-0.3-0.3-0.3c-0.4-0.4-0.8-0.8-1.3-1
					c-0.5-0.1-1.2-0.4-1.7-0.4c-0.6,0-1.3,0.1-1.8,0.6c-0.5,0.5-0.9,1.2-0.9,1.8c0,0.1,0,0.3,0,0.5c0,0.1,0,0.1,0,0.3l0.1,0.1
					l0.1,0.8l0.1,0.6c0.1,0.3,0.1,0.5,0.1,0.6l0.1,0.6c0.1,0.3,0,0.5,0.1,0.6c0,0.5,0.1,0.9,0.1,1.4c0,1.8-0.1,3.7-0.5,5.6
					c-0.3,1.8-0.9,3.7-1.5,5.4c-0.3,0.9-0.6,1.8-0.9,2.7c-0.1,0.5-0.3,1-0.3,1.4c-0.1,0.5-0.1,1-0.3,1.4L38.4,45l-0.1,0.4l-0.1,0.3
					c0,0.3-0.1,0.5-0.1,0.6c-0.3,0.9-0.6,1.8-1,2.6c-0.9,1.7-2,3.2-3.2,4.6c-1.3,1.4-2.6,2.8-4,4.1c-1.4,1.4-2.8,2.6-4.2,4
					c1.5-1.2,3.1-2.3,4.5-3.6c1.4-1.3,2.9-2.6,4.2-4c1.3-1.4,2.6-2.9,3.5-4.6c0.5-0.9,0.9-1.8,1.2-2.7c0.1-0.3,0.1-0.5,0.1-0.8
					l0.1-0.4l0.1-0.4l0.3-1.4c0.1-0.5,0.1-0.9,0.3-1.4c0.1-0.5,0.3-0.9,0.3-1.4c0.3-0.9,0.6-1.8,0.9-2.7c0.6-1.8,1.3-3.7,1.7-5.6
					c0.1-0.9,0.3-1.7,0.4-2.4c0.6-0.5,1.3-0.6,1.3-0.6c-0.6,0-1,0.1-1.3,0.1c0.1-1,0.1-2,0.1-2.9c0-0.5,0-1-0.1-1.4
					c0-0.3,0-0.5-0.1-0.8l0.1-0.4c-0.1-0.9-0.5-2-0.5-2.6c0.1,0.1,0.3,0.1,0.4,0.3c0.1,0.1,0.3,0.1,0.4,0.3s0.3,0.1,0.4,0.3
					c0,0,0,0.1,0.1,0.1v0.1c0,0,0,0.1,0,0.3v0.3c-0.1,0.8-0.1,1.4-0.1,2c0,0.5,0,0.9,0,0.9s0.1-0.4,0.4-0.9c0.1-0.1,0.1-0.3,0.1-0.5
					c0.1-0.1,0.1-0.3,0.1-0.5c0.1-0.3,0.1-0.6,0.3-1v-0.3v-0.1c0-0.1,0-0.3,0-0.3s0-0.3-0.1-0.4c-0.1-0.1-0.1-0.3-0.3-0.3
					c-0.3-0.1-0.4-0.1-0.5-0.3c-0.1,0-0.3-0.1-0.5-0.1c-0.3,0-0.4-0.1-0.5-0.1c0.1-0.3,0.1-0.5,0.4-0.6c0.3-0.1,0.5-0.3,0.9-0.3
					c0.3,0,0.6,0.1,1,0.3c0.3,0.1,0.6,0.5,0.9,0.8c0.1,0.1,0.1,0.1,0.1,0.3L46,22c0.1,0.3,0.3,0.4,0.4,0.6l0.3,0.6l0.3,0.6
					c0.3,0.9,0.6,1.8,0.9,2.7c0.5,1.8,0.6,3.7,0.9,5.6c0.1,0.9,0.1,1.8,0,2.7l-0.1,1.4c0,0.3-0.1,0.5-0.1,0.8c0,0.1,0,0.3,0,0.5
					c0,0.1,0,0.1,0.1,0.3l0,0c0.1,2.7,1.3,5,1.3,5c-0.4-1.7-0.4-3.3-0.3-4.3c0.1,0,0.1-0.1,0.3-0.1c0.3-0.1,0.3-0.1,0.5-0.3l0.3-0.3
					l0.3-0.3l0.3-0.3c0.4-0.3,0.8-0.5,1.3-0.8c0.9-0.5,1.7-1,2.4-1.4c1.7-0.9,3.3-1.8,5-2.6c0.9-0.4,1.8-0.6,2.6-0.9
					c0.3,0,0.4-0.1,0.5-0.1c0.1,0,0.1,0,0.3,0s0.3,0.1,0.3,0.1c0.1,0,0.1,0.1,0.3,0.1c0.1,0.1,0.1,0.1,0.3,0.1
					c0.1,0.1,0.3,0.3,0.5,0.4c0.6,0.5,0.9,1.3,1,2c0.1,0.8-0.1,1.7-0.5,2.3c-1.3,2-3.5,4.2-4.9,4.9c-0.5,0.3-1,0.4-1.5,0.6
					c-0.6,0.3-1.3,0.4-1.7,0.5L56,42.8C55.6,43,55.2,43,55,43c-0.3-0.1-0.5-0.1-0.8-0.4l-0.1-0.1c-0.1-0.1-0.3-0.4-0.3-0.6l0.1-0.1
					c0,0,0,0,0-0.1c0.1-0.1,0.1-0.1,0.3-0.3c0.3-0.3,0.5-0.5,0.8-0.6c0.3-0.3,0.6-0.4,1-0.5c0.1-0.1,0.3-0.1,0.5-0.1
					c0.1,0,0.3,0.1,0.3,0.1c0.1,0.1,0.1,0.1,0.1,0.1c0.1,0.1,0.1,0.1,0.1,0.1c0.1,0.1,0.3,0.3,0.3,0.4c0.1,0.3,0.3,0.5,0.4,0.6
					c0.1,0.1,0.1,0.3,0.1,0.3s0-0.1,0-0.3c0-0.1-0.1-0.5-0.1-0.8v-0.1c-0.1-0.1-0.1-0.3-0.1-0.5c-0.1-0.1-0.1-0.1-0.1-0.3
					c-0.1-0.1-0.1-0.1-0.1-0.3c-0.4,0.1-0.5,0-0.6,0c-0.1-0.1-0.3-0.1-0.5-0.1s-0.5,0-0.8,0.1c-0.5,0.1-0.9,0.5-1.2,0.8
					c-0.1,0.1-0.3,0.3-0.4,0.5c-0.1,0.1-0.3,0.3-0.3,0.5l0,0c0-0.1,0-0.1,0-0.3c0-0.1,0.1-0.3,0.1-0.5c0.1-0.3,0.4-0.6,0.6-1
					c0.3-0.3,0.6-0.6,0.9-0.9c0.1-0.1,0.3-0.3,0.4-0.3c0.3-0.1,0.4-0.4,0.6-0.5c0.4-0.3,0.6-0.5,1-0.8l0.1-0.1l0,0
					c0.1-0.3,0.3-0.5,0.4-0.8l0.5-0.8c0.1-0.3,0.3-0.5,0.5-0.8l0.5-0.8l-0.6,0.6c-0.3,0.3-0.5,0.4-0.6,0.6l-0.6,0.6
					c-0.1,0.1-0.1,0.3-0.3,0.3c0-0.1-0.1-0.1-0.1-0.1c-0.4-0.5-0.8-1.4-0.8-1.4s-0.1,0.6,0.5,2c-0.3,0.3-0.6,0.4-0.9,0.6
					c-0.4,0.3-0.8,0.5-1.2,0.9c-0.3,0.3-0.5,0.4-0.6,0.6c-0.5-0.6-1-2-1-2s0.1,1.3,0.5,2.6c-0.1,0.1-0.3,0.4-0.5,0.6
					c0-0.1-0.1-0.1-0.1-0.3c-0.1-0.5-0.3-0.9-0.3-0.9s0.1,0.5,0.1,1.4c0,0,0,0,0,0.1c-0.1,0.3-0.3,0.5-0.3,0.8
					c0,0.1-0.1,0.3-0.1,0.4c0,0.1,0,0.3,0,0.4c0,0.5,0.1,1.2,0.5,1.7c0.1,0.3,0.4,0.4,0.6,0.5c0.1,0.4,0.1,0.9,0.3,1.3
					c0,0.1,0,0.1,0.1,0.3c-0.1,0.1-0.1,0.3-0.3,0.5c-0.1,0.4-0.3,0.8-0.3,1.2s0.1,0.9,0.3,1.3c0.1,0.4,0.5,0.8,0.8,1
					c0.3,0.1,0.5,0.3,0.6,0.5c0.1,0.3,0.3,0.6,0.3,0.9c-0.1,0.1-0.1,0.4-0.1,0.6c-0.1,0.4-0.1,0.8,0,1.2c0,0.3,0.1,0.4,0.1,0.6
					c0.1,0.3,0.1,0.4,0.3,0.5s0.3,0.4,0.4,0.5c0.1,0.1,0.3,0.3,0.5,0.4c0.1,0.1,0.3,0.3,0.5,0.3h0.1c0.1,0.3,0.3,0.5,0.4,0.8
					c0.3,0.5,0.5,0.9,0.6,1.2c0.1,0.4,0.4,0.6,0.5,0.9c0.3,0.5,0.5,0.8,0.5,0.8s-0.1-0.3-0.3-0.9c-0.1-0.3-0.3-0.6-0.4-0.9
					c-0.1-0.4-0.3-0.8-0.5-1.3c0-0.1-0.1-0.1-0.1-0.3c0.1,0,0.1,0,0.1,0c0.1,0,0.4,0.1,0.5,0.1c0.1,0,0.3,0,0.5,0.1
					c0,0.1,0,0.1,0,0.1c0.1,0.3,0.1,0.5,0.3,0.8c0.3,0.5,0.5,0.9,0.9,1.3c0.1,0.3,0.4,0.4,0.5,0.5c0.3,0.1,0.5,0.3,0.6,0.4
					c0.3,0.1,0.5,0.3,0.6,0.3s0.1,0.1,0.3,0.1c0.5,0.6,1,1.2,1.3,1.4c-0.3,0.3-0.5,0.4-0.8,0.6l-0.4,0.3L62,61.5
					c-0.3,0.3-0.5,0.4-0.8,0.5c-0.5,0.3-1.2,0.6-1.8,0.9c-0.6,0.3-1.3,0.5-1.8,0.8c-1.3,0.5-2.6,0.9-3.8,1.4
					c-0.4,0.1-0.9,0.3-1.3,0.5c-4.6,0.8-8.3-2.9-8.3-2.9c2.9,3.3,5,3.8,6.1,4.1l-0.3,0.1l-0.9,0.5c-0.3,0.1-0.6,0.4-0.9,0.6
					l-0.9,0.6l-0.5,0.3l-0.4,0.3c-0.5,0.5-1,0.9-1.7,1.3c-0.5,0.5-1,0.9-1.5,1.4c-0.5,0.5-1,0.9-1.4,1.4c-0.5,0.5-0.9,1-1.4,1.5
					c0.5-0.5,1-0.9,1.7-1.3c0.5-0.5,1-0.9,1.7-1.3c0.5-0.4,1-0.8,1.7-1.3c0.5-0.4,1.2-0.8,1.7-1.2l0.4-0.3l0.5-0.3l0.9-0.5
					c0.3-0.1,0.5-0.4,0.9-0.5l0.9-0.5l0.9-0.5l0.3-0.1l0,0l0,0l0,0l0,0H52l0.1-0.1l0.5-0.3c0.6-0.3,1.3-0.5,1.8-0.6
					c1.3-0.5,2.6-0.9,3.8-1.3c0.6-0.3,1.3-0.5,2-0.8c0.6-0.3,1.3-0.6,1.9-0.9c0.3-0.3,0.6-0.4,0.9-0.6l0.5-0.3l0.4-0.3l1.7-1.3
					l1.7-1.2l1.7-1.2c0.9-0.3,1.8-0.6,2.7-1.3c0.3-0.1,0.5-0.3,0.6-0.5c0.3-0.1,0.5-0.4,0.6-0.5c0.3-0.3,0.4-0.4,0.5-0.6
					c0.1-0.1,0.1-0.3,0.3-0.4c0.1-0.1,0.1-0.3,0.3-0.4l0.1-0.4l0.1-0.5c0.1-0.1,0.1-0.3,0.1-0.5v-0.3C74,53.1,74,52.9,74,52.9
					L74,52.9v-0.1V52.9L74,52.9L74,52.9z M69.3,40L69.3,40L69.3,40z M56,48.7c-0.1-0.1-0.4-0.3-0.5-0.3c-0.4-0.3-0.5-0.6-0.5-1.2
					c0-0.3,0.1-0.6,0.3-0.9l0,0c0.1-0.1,0.3-0.1,0.3-0.1c0.1,0,0.3-0.1,0.5-0.1c0.3,0,0.6,0.1,1,0.3c0.1,0.1,0.4,0.1,0.5,0.3
					c0.1,0.1,0.1,0.1,0.3,0.1l0,0l0,0l0,0l0.1,0.1c0.1,0.1,0.1,0.3,0.3,0.5c0.1,0.1,0.1,0.3,0.3,0.5c0.1,0.3,0.3,0.5,0.3,0.6
					c0.1,0.1,0.1,0.3,0.1,0.3s0.1-0.5,0-1c0-0.1-0.1-0.3-0.1-0.5c-0.1-0.1-0.1-0.4-0.3-0.6c0-0.1-0.1-0.1-0.1-0.1s0-0.1-0.1-0.1
					l-0.1-0.1l0,0l0,0l0,0l0,0l-0.1-0.1L57.8,46c-0.1-0.1-0.4-0.3-0.6-0.3c-0.5-0.1-0.9-0.3-1.3-0.1c-0.1,0-0.3,0.1-0.5,0.1
					c0.1-0.3,0.3-0.5,0.5-0.6c0.1-0.1,0.1-0.3,0.3-0.4c0,0,0,0,0-0.1c0.5-0.1,1.8-0.5,2.9-1c0.5-0.1,0.9-0.4,1.3-0.5
					c1.5-0.6,3.8-2.9,5.2-5c-0.9,1.7-2.9,3.7-2.9,3.7c1.9-1.4,3.3-3.1,3.8-3.7c0.1,0,0.3,0.1,0.4,0.1c0.1,0.1,0.3,0.1,0.5,0.1
					c0.1,0.1,0.3,0.1,0.5,0.3c0.1,0.1,0.3,0.3,0.4,0.3c0.1,0.1,0.1,0.1,0.1,0.1c0.1,0.1,0.1,0.1,0.1,0.1l0.1,0.3
					c0.1,0.1,0.1,0.1,0.1,0.3l0.1,0.1l0,0l0,0v0.1l0.1,0.3c0.1,0.1,0.1,0.1,0.1,0.3s0.1,0.1,0.1,0.3l0.1,0.3v0.3c0,0.1,0,0.1,0,0.3
					s0,0.1,0,0.3c0,0.1-0.1,0.3-0.1,0.5c-0.1,0.1-0.1,0.3-0.1,0.5C69,42.8,69,43,68.9,43.2c-0.1,0.1-0.1,0.3-0.3,0.4l-0.5,0.3
					c-2,1.5-4,3.1-6.1,4.1c-1.7,0.8-3.5,1.3-5.2,1C56.6,49,56.4,48.8,56,48.7z M60,54.1C59.8,54.1,59.8,54.1,60,54.1
					c-0.4,0-0.6,0-0.9-0.1c-0.1,0-0.3-0.1-0.4-0.1s-0.3-0.1-0.4-0.1c-0.1-0.1-0.3-0.1-0.4-0.1c-0.1-0.1-0.3-0.1-0.3-0.1l0,0
					c-0.1-0.1-0.1-0.1-0.3-0.3c-0.1-0.1-0.1-0.1-0.3-0.3C57,52.8,57,52.8,57,52.7c0-0.1-0.1-0.3-0.1-0.3c0-0.3,0-0.5,0-0.8
					c0-0.1,0-0.1,0-0.1C57,51.3,57,51,57,50.9c0.1-0.1,0.1-0.3,0.1-0.4c0.1,0,0.3,0,0.5,0c1.9,0,3.7-0.5,5.4-1.3c2.2-1,4.1-2.6,6-4
					c-1,1.2-2.7,2.2-2.7,2.2c1.8-0.6,3.3-1.7,4.1-2.2c0.1,0.1,0.1,0.1,0.3,0.1c0.1,0.1,0.1,0.1,0.3,0.3c0.1,0.1,0.1,0.3,0.3,0.3
					c0.1,0.1,0.1,0.3,0.1,0.4l0.1,0.1l0,0l0,0v0.1v0.1c0.1,0.1,0,0.3,0,0.4s0,0.3,0,0.4c0,0.1-0.1,0.3-0.1,0.4s-0.1,0.3-0.1,0.4
					c-0.1,0.3-0.3,0.5-0.4,0.8c-0.1,0.1-0.1,0.3-0.3,0.4c-0.1,0.1-0.1,0.1-0.1,0.3C67.3,51.7,62.9,53.7,60,54.1z M64.6,59.7
					c-0.3,0.1-0.5,0.4-0.9,0.6c-0.1-0.3-0.4-0.8-0.5-1.3c0.1,0,0.3,0.1,0.5,0.1c0.3,0,0.5,0.1,0.6,0.1c0.3,0,0.5,0,0.6,0
					c0.1,0,0.1,0,0.3,0L64.6,59.7z M72.6,53.5v0.1c0,0.1,0,0.1-0.1,0.3l-0.1,0.3l-0.1,0.3c0,0.1-0.1,0.1-0.1,0.3
					C72,54.7,72,54.7,72,54.9c-0.1,0.1-0.3,0.3-0.4,0.5c-0.1,0.1-0.3,0.3-0.5,0.4c-0.1,0.1-0.4,0.3-0.5,0.4c-0.8,0.5-1.7,0.9-2.6,1
					l0,0h0.1L68,57.3l0,0l-0.5,0.1c-0.3,0.1-0.4,0.1-0.6,0.1c-0.3,0.1-0.4,0.1-0.6,0.1c-0.3,0-0.4,0.1-0.6,0.1c-0.3,0-0.4,0-0.6,0
					c-0.3,0-0.4,0-0.6,0c-0.3,0-0.4,0-0.6-0.1c-0.3,0-0.4-0.1-0.5-0.1s-0.3-0.1-0.4-0.1c0.1,0,0.1,0,0.3-0.1
					c0.3-0.1,0.5-0.3,0.8-0.5c0.1-0.1,0.1-0.1,0.1-0.1c0.1-0.1,0.1-0.1,0.3-0.3c0.1-0.3,0.1-0.4,0.1-0.5c-0.1-0.3-0.1-0.5-0.3-0.6
					c-0.3-0.4-0.4-0.6-0.4-0.6s0,0.3,0.1,0.6c0,0.3,0,0.5,0,0.6c0,0.1,0,0.1,0,0.3l-0.1,0.1l-0.1,0.1c-0.3,0.1-0.4,0.3-0.5,0.5
					C62.9,57,62.9,57,62.8,57s-0.1,0-0.3,0c-0.1,0-0.3-0.1-0.5-0.1c-0.1-0.1-0.3-0.1-0.3-0.1s0,0.1,0.1,0.1C61.9,57,62,57,62,57
					c-0.1-0.1-0.1-0.1-0.3-0.1c-0.1-0.1-0.3-0.3-0.4-0.4c-0.3-0.3-0.5-0.5-0.5-0.9c-0.1-0.1-0.1-0.3-0.1-0.4
					c3.1-0.5,7.2-2.3,10.1-4.1c-1.2,1-2.8,1.8-2.8,1.8c2-0.6,3.3-1.3,4.1-1.7c0.1,0.1,0.1,0.1,0.3,0.3c0.1,0.1,0.1,0.1,0.1,0.3
					l0.1,0.1l0.1,0.1c0,0.1,0.1,0.1,0.1,0.3c0,0.1,0.1,0.1,0.1,0.3v0.3v0.3C72.6,53.3,72.6,53.5,72.6,53.5z"/>
			</g>
		</g>
		<g>
			<g>
				<path class="st0" d="M51.5,45.4c0.1,0.4,0.3,0.9,0.4,1.3c0.1,0.5,0.3,0.9,0.5,1.4c0.1,0.5,0.3,0.9,0.4,1.4
					c0.1,0.5,0.3,1,0.4,1.4c0.1,0.5,0.3,0.9,0.3,1.4c0.1,0.3,0.1,0.5,0.1,0.6c0,0.3,0.1,0.5,0.1,0.6c0,0.3,0.1,0.4,0.1,0.6
					s0.1,0.4,0.1,0.6c0,0.1,0,0.4,0.1,0.5c0,0.1,0,0.3,0,0.5s0,0.5,0,0.8c0,0.5,0,0.6,0,0.6s0.1-0.3,0.1-0.6
					c0.1-0.3,0.1-0.5,0.1-0.8c0-0.3,0.1-0.6,0.1-1c0-0.4,0.1-0.9,0-1.3c0-0.3,0-0.5,0-0.6c0-0.3-0.1-0.5-0.1-0.6
					c-0.1-0.5-0.1-1-0.3-1.4c-0.1-0.5-0.3-1-0.4-1.5c-0.1-0.5-0.3-1-0.5-1.4c-0.1-0.5-0.3-0.9-0.5-1.4c-0.1-0.5-0.4-0.9-0.5-1.3
					c-0.1-0.4-0.4-0.8-0.5-1.2c-0.1-0.3-0.3-0.6-0.5-0.9c-0.1-0.3-0.3-0.5-0.4-0.6c-0.3-0.4-0.3-0.6-0.3-0.6s0,0.3,0.1,0.6
					c0.1,0.5,0.3,1,0.5,1.8C51.3,44.6,51.4,45,51.5,45.4z"/>
			</g>
		</g>
		<g>
			<g>
				<path class="st0" d="M60.9,52.6C60.9,52.4,60.9,52.4,60.9,52.6c0-0.1,0-0.1,0-0.1l0,0v-0.1l0,0v-0.1L60.7,52
					c-0.1-0.1-0.1-0.3-0.3-0.5c-0.1-0.1-0.3-0.3-0.4-0.5c-0.1-0.1-0.3-0.3-0.5-0.4c-0.3-0.1-0.4-0.1-0.6-0.1c-0.1,0-0.1,0-0.3,0
					s-0.1,0-0.3,0.1c-0.3,0.1-0.5,0.1-0.6,0.3C57.7,51,57.5,51,57.5,51s0.1,0,0.3,0c0.1,0,0.1,0,0.3,0c0.1,0,0.3,0,0.4,0
					c0.1,0,0.1,0,0.3,0s0.1,0,0.3,0.1c0.1,0.1,0.3,0.1,0.4,0.1c0.1,0.1,0.3,0.1,0.3,0.3c0.1,0.1,0.3,0.3,0.3,0.4
					c0.1,0.1,0.1,0.3,0.3,0.5l0.1,0.1v0.1l0,0l0,0l0,0l0,0l0,0l0,0v0.1l0,0l0,0c0,0.1-0.1,0.1-0.1,0.3c-0.1,0.1-0.1,0.3-0.3,0.3
					c-0.3,0.1-0.4,0.3-0.5,0.5c-0.1,0-0.1,0-0.1,0s0.1,0,0.3-0.1c0.1,0,0.4-0.1,0.6-0.3c0,0,0.1,0,0.1-0.1c0.1-0.1,0.3-0.1,0.4-0.3
					c0.1-0.1,0.3-0.3,0.4-0.5C60.9,52.7,60.9,52.6,60.9,52.6C61,52.6,60.9,52.6,60.9,52.6z"/>
			</g>
		</g>
		<g>
			<g>
				<path class="st0" d="M39.5,49.4c0.1-0.3,0.3-0.5,0.4-0.9c0.1-0.3,0.3-0.6,0.3-0.9c0.1-0.3,0.1-0.6,0.3-1c0.1-0.4,0.1-0.6,0.1-1
					c0.1-0.4,0.1-0.6,0.1-1c0-0.4,0.1-0.6,0.1-1c0-0.3,0.1-0.6,0.1-1c0.1-0.3,0.1-0.6,0.1-0.9c0.1-0.3,0.1-0.5,0.1-0.6
					c0.1-0.3,0.1-0.4,0.1-0.5c0.1-0.3,0.1-0.5,0.1-0.5s-0.1,0.1-0.3,0.4c-0.1,0.1-0.1,0.3-0.3,0.5c-0.1,0.1-0.1,0.3-0.1,0.3
					c-0.1,0.1-0.1,0.3-0.1,0.4c-0.1,0.3-0.1,0.5-0.3,0.9c-0.1,0.3-0.1,0.6-0.3,1c-0.1,0.6-0.3,1.4-0.3,2.2c-0.1,0.4-0.1,0.6-0.1,1
					c-0.1,0.3-0.1,0.6-0.3,1c-0.1,0.3-0.1,0.6-0.3,0.9S39.1,49,39,49.4c-0.1,0.3-0.3,0.5-0.3,0.6c-0.1,0.3-0.1,0.4-0.3,0.5
					c-0.1,0.3-0.3,0.5-0.3,0.5s0.1-0.1,0.3-0.4c0.1-0.1,0.3-0.3,0.4-0.5C39.3,49.9,39.4,49.6,39.5,49.4z"/>
			</g>
		</g>
		<g>
			<g>
				<path class="st0" d="M41.4,72.7c0.3-0.3,0.5-0.5,0.8-0.6c0.3-0.3,0.5-0.5,0.8-0.6c0.3-0.3,0.5-0.5,0.8-0.8
					c0.3-0.3,0.5-0.5,0.8-0.6c0.3-0.3,0.5-0.5,0.8-0.6c0.3-0.3,0.5-0.4,0.6-0.5c0.9-0.6,1.4-1.2,1.4-1.2s-0.1,0.1-0.5,0.3
					c-0.1,0.1-0.3,0.1-0.5,0.3c-0.3,0.1-0.4,0.3-0.6,0.4c-0.3,0.1-0.5,0.3-0.8,0.5c-0.3,0.1-0.5,0.4-0.8,0.6
					c-0.3,0.3-0.5,0.5-0.9,0.6c-0.3,0.3-0.5,0.5-0.9,0.6c-0.3,0.3-0.5,0.5-0.8,0.8s-0.5,0.5-0.6,0.8c-0.3,0.3-0.5,0.5-0.6,0.8
					c-0.3,0.3-0.4,0.5-0.5,0.6c-0.6,0.9-1,1.5-1,1.5s0.5-0.5,1.3-1.3c0.1-0.3,0.4-0.4,0.6-0.6C41.1,73.1,41.2,73,41.4,72.7z"/>
			</g>
		</g>
		<g>
			<g>
				<path class="st0" d="M40.3,60.9c0.3-0.3,0.4-0.4,0.4-0.4S40.5,60.6,40.3,60.9c-0.3,0.1-0.6,0.4-1,0.8c-0.5,0.3-0.9,0.8-1.4,1.2
					c-0.5,0.5-1,0.9-1.7,1.4c-0.5,0.5-1.2,0.9-1.7,1.4c-0.5,0.5-1,0.9-1.4,1.3c-0.4,0.4-0.8,0.6-1,0.9c-0.3,0.3-0.4,0.4-0.4,0.4
					s0.1-0.1,0.4-0.3c0.3-0.3,0.6-0.5,1-0.8c0.5-0.3,0.9-0.8,1.4-1.2c0.5-0.5,1-0.9,1.7-1.4c0.5-0.5,1.2-0.9,1.7-1.4
					c0.5-0.5,1-0.9,1.4-1.3C39.8,61.4,40,61,40.3,60.9z"/>
			</g>
		</g>
	</g>
	<g>
		<path class="st0" d="M15.1,27.5c0.3-0.5,0.6-0.6,1-0.9c0.4-0.1,0.8-0.1,1,0.1c0.5,0.3,0.6,0.6,0.5,1.3c0.5-0.4,1-0.5,1.4-0.1
			c0.4,0.3,0.5,0.5,0.6,1c0.1,0.5-0.1,0.9-0.4,1.4c-0.3,0.4-0.5,0.8-0.9,0.9c-0.3,0.3-0.6,0.4-1,0.5l-0.3-0.9c0.6-0.1,1-0.5,1.4-1
			c0.1-0.3,0.1-0.4,0.1-0.6c0-0.1-0.1-0.3-0.3-0.5c-0.1-0.1-0.3-0.1-0.5,0c-0.1,0.1-0.3,0.3-0.5,0.5l-0.3,0.5l-0.8-0.5l0.3-0.5
			c0.3-0.5,0.3-0.9,0-1c-0.1-0.1-0.3-0.1-0.5,0c-0.1,0.1-0.3,0.3-0.5,0.4c-0.3,0.5-0.4,0.9-0.3,1.4l-0.9,0.1
			C14.6,28.8,14.7,28.1,15.1,27.5z"/>
		<path class="st0" d="M20.4,28.4l-2.3-4.7l0.6-0.8l5,1.5L23,25.3L21.9,25l-1.3,1.7l0.5,1L20.4,28.4z M20.1,25.6l0.9-1l-1.7-0.5
			L20.1,25.6z"/>
		<path class="st0" d="M24.1,24.1l-3.2-3.6l0.8-0.6l1.4,1.7l0.1-2.9l1-0.9l-0.1,2.8l3.5,0.6L26.6,22l-2.6-0.5v0.9l1,1L24.1,24.1z"/>
		<path class="st0" d="M27.4,21l-1-5.2l0.9-0.5l4.5,2.9l-0.9,0.6l-1-0.6l-1.7,1.2l0.3,1.2L27.4,21z M27.9,18.3l1-0.6l-1.4-0.9
			L27.9,18.3z"/>
		<path class="st0" d="M31.5,12.8c0.5-0.3,0.9-0.3,1.3-0.3c0.4,0,0.6,0.3,0.9,0.6c0.3,0.5,0.1,0.9-0.3,1.4c0.6-0.1,1,0.1,1.3,0.6
			c0.1,0.4,0.3,0.8,0,1.2c-0.1,0.4-0.5,0.6-1,1c-0.5,0.3-0.9,0.4-1.3,0.4c-0.4,0-0.6,0-1-0.1l0.1-0.9c0.5,0.1,1.2,0.1,1.7-0.1
			c0.3-0.1,0.4-0.3,0.5-0.4c0.1-0.1,0.1-0.3,0-0.5s-0.3-0.3-0.5-0.3c-0.3,0-0.5,0.1-0.6,0.1L32,15.9l-0.4-0.8l0.5-0.3
			c0.5-0.3,0.6-0.5,0.5-0.9c-0.1-0.1-0.3-0.3-0.4-0.3s-0.4,0-0.6,0.1c-0.5,0.3-0.8,0.6-0.9,1l-0.9-0.4
			C30.2,13.7,30.7,13.2,31.5,12.8z"/>
		<path class="st0" d="M41.8,13.6c-0.3,0.6-0.9,1-1.7,1.3c-0.6,0.3-1.4,0.1-2-0.1c-0.6-0.3-1-0.9-1.3-1.5c-0.3-0.6-0.1-1.3,0.3-1.9
			c0.3-0.6,0.9-1,1.7-1.3c0.6-0.3,1.4-0.1,2,0.1s1,0.9,1.3,1.5C42.2,12.3,42.2,12.9,41.8,13.6z M38.8,13.7c0.4,0.3,0.8,0.3,1.2,0.1
			c0.4-0.1,0.6-0.4,0.9-0.6c0.1-0.4,0.3-0.8,0.1-1.2c-0.1-0.4-0.4-0.6-0.6-0.9c-0.4-0.3-0.8-0.3-1.2-0.1c-0.4,0.1-0.6,0.4-0.9,0.6
			c-0.1,0.4-0.3,0.8-0.1,1.2C38.2,13.2,38.5,13.5,38.8,13.7z"/>
		<path class="st0" d="M46.5,13.7l-1,0.1l-0.1-0.5c-0.8,0.1-1.3-0.1-1.8-0.4c-0.5-0.4-0.8-0.9-0.9-1.4c-0.1-0.5,0.1-1.2,0.5-1.7
			c0.4-0.5,0.9-0.6,1.7-0.8l-0.1-0.5l1-0.1L45.9,9c0.6-0.1,1.3,0.1,1.8,0.4c0.5,0.4,0.8,0.9,0.9,1.4c0.1,0.5-0.1,1.2-0.5,1.7
			c-0.4,0.5-0.9,0.6-1.7,0.8L46.5,13.7z M45.4,12.3L45.1,10c-0.4,0.1-0.6,0.1-0.9,0.5C44,10.8,44,11,44,11.4
			c0.1,0.4,0.1,0.6,0.5,0.9C44.6,12.3,45,12.4,45.4,12.3z M46.2,9.9l0.3,2.3c0.4-0.1,0.6-0.1,0.9-0.5c0.3-0.3,0.3-0.5,0.3-0.9
			c-0.1-0.4-0.1-0.6-0.5-0.9C46.9,9.9,46.5,9.9,46.2,9.9z"/>
		<path class="st0" d="M53.8,12.8c-0.5,0.5-1.2,0.6-1.9,0.6s-1.4-0.3-1.8-0.9c-0.5-0.5-0.6-1.2-0.6-1.8s0.3-1.3,0.9-1.8
			c0.5-0.5,1.2-0.6,1.9-0.6c0.8,0.1,1.4,0.3,1.8,0.9c0.5,0.5,0.6,1.2,0.6,1.8C54.6,11.8,54.5,12.4,53.8,12.8z M51,12
			c0.3,0.3,0.6,0.5,1,0.5c0.5,0,0.8-0.1,1-0.4c0.3-0.3,0.5-0.6,0.5-1s-0.1-0.8-0.4-1c-0.3-0.3-0.6-0.5-1-0.5c-0.5,0-0.8,0.1-1,0.4
			c-0.3,0.3-0.5,0.6-0.5,1S50.8,11.8,51,12z"/>
		<path class="st0" d="M55.4,13.7L56.3,9l1.9,0.4c0.5,0.1,1,0.4,1.3,0.6c0.3,0.4,0.4,0.8,0.3,1.3c-0.1,0.5-0.4,0.9-0.8,1.2
			c-0.4,0.3-1,0.4-1.5,0.3l-0.8-0.1L56.4,14L55.4,13.7z M56.9,11.5l0.9,0.1c0.3,0.1,0.5,0,0.6-0.1c0.1-0.1,0.3-0.3,0.3-0.5
			c0.1-0.3,0-0.5-0.1-0.6c-0.1-0.1-0.3-0.3-0.6-0.3H57L56.9,11.5z"/>
		<path class="st0" d="M59.7,14.6l1.7-4.6l1,0.4l0.5,2.3l1.9-1.5l1,0.4l-1.5,4.6l-1-0.4l1-2.9l-2,1.5l0,0l-0.5-2.4l-1,2.9L59.7,14.6
			z"/>
		<path class="st0" d="M68,12.6l3.1,1.7l-2.2,4.2L68,17.9l1.8-3.5l-1.3-0.6l-0.1,0.3c-0.5,0.9-0.9,1.4-1.2,1.9
			c-0.3,0.4-0.6,0.6-0.9,0.8c-0.3,0.1-0.6,0-0.9-0.1c-0.3-0.1-0.4-0.3-0.5-0.3l0.5-0.8c0.1,0.1,0.1,0.1,0.1,0.1
			c0.1,0.1,0.3,0.1,0.4,0.1c0.1,0,0.3-0.1,0.5-0.3c0.1-0.1,0.4-0.4,0.6-0.6c0.3-0.3,0.5-0.8,0.8-1.4L68,12.6z"/>
		<path class="st0" d="M69.7,19.1l2.8-4l2.9,2.2l-0.5,0.8l-2.2-1.5l-0.5,0.9l1.8,1.3l-0.5,0.8l-1.8-1.3l-0.6,0.9l2.2,1.5l-0.5,0.8
			L69.7,19.1z"/>
		<path class="st0" d="M73.4,21.6l3.3-3.6l0.8,0.6l-1.3,1.4l1.4,1.3l1.3-1.4l0.8,0.6l-3.3,3.6l-0.8-0.6l1.3-1.4l-1.4-1.3l-1.3,1.4
			L73.4,21.6z"/>
	</g>
	<g>
		<path class="st0" d="M27.8,84.5c-0.6-0.4-1-0.9-1-1.7c-0.1-0.6,0-1.3,0.4-1.9s0.9-0.9,1.7-1c0.6-0.1,1.3,0,1.9,0.4
			c0.4,0.3,0.6,0.5,0.8,0.8c0.1,0.3,0.3,0.6,0.4,0.9L31,82.2c-0.1-0.3-0.1-0.5-0.3-0.6c-0.1-0.1-0.3-0.3-0.5-0.5
			c-0.3-0.3-0.6-0.3-1-0.1c-0.4,0.1-0.6,0.3-0.9,0.6C28,81.9,28,82.3,28,82.7c0.1,0.4,0.3,0.6,0.6,0.9c0.3,0.1,0.5,0.3,0.6,0.3
			c0.3,0,0.5,0,0.8,0l0.1,1c-0.4,0.1-0.8,0.1-1,0.1C28.5,84.9,28.1,84.8,27.8,84.5z"/>
		<path class="st0" d="M30.6,86.2l2-4.3l3.7,1.8l-2,4.3l-1-0.5l1.7-3.5l-1.8-0.9l-1.7,3.5L30.6,86.2z"/>
		<path class="st0" d="M35.3,88.3l3.5-4.1l0.9,0.3l0.5,5.2l-1-0.3L39,88.3l-2-0.6l-0.8,0.9L35.3,88.3z M37.7,87.1l1.3,0.4l-0.3-1.7
			L37.7,87.1z"/>
		<path class="st0" d="M43.4,90.5c-0.6-0.1-1.3-0.5-1.7-1c-0.4-0.5-0.5-1.2-0.4-1.9c0.1-0.6,0.5-1.3,1-1.7c0.5-0.4,1.3-0.5,1.9-0.4
			c0.4,0.1,0.8,0.3,1,0.4c0.3,0.1,0.5,0.5,0.6,0.6l-0.8,0.8c-0.1-0.3-0.3-0.4-0.5-0.5c-0.1-0.1-0.4-0.3-0.6-0.3
			c-0.4-0.1-0.8,0-1,0.3c-0.3,0.3-0.5,0.6-0.6,1c-0.1,0.4,0,0.8,0.3,1.2c0.3,0.3,0.5,0.5,0.9,0.6c0.3,0.1,0.5,0,0.6,0
			c0.3-0.1,0.5-0.1,0.6-0.3l0.5,0.9c-0.3,0.3-0.6,0.4-0.9,0.5C44.1,90.6,43.7,90.6,43.4,90.5z"/>
		<path class="st0" d="M50.9,86.2L50.8,91h-1l0.1-3.2l-2.2,3.1h-1l0.1-4.9h0.9v3.3l2.2-3.1h1V86.2z"/>
		<path class="st0" d="M52.9,87.1l0.1,0.9l1.3-0.1c0.5-0.1,1,0,1.3,0.3c0.3,0.3,0.5,0.6,0.5,1c0.1,0.5-0.1,0.9-0.4,1.2
			c-0.3,0.3-0.6,0.5-1.3,0.5L52.3,91l-0.5-4.9l3.7-0.4l0.1,1L52.9,87.1z M54.2,88.6l-1.2,0.1l0.1,1.3l1.2-0.1
			c0.5-0.1,0.6-0.3,0.6-0.6C55,88.7,54.7,88.6,54.2,88.6z"/>
		<path class="st0" d="M61.4,88.7c-0.4,0.6-0.9,1-1.7,1.2c-0.6,0.1-1.4,0.1-2-0.3c-0.6-0.4-1-0.9-1.2-1.5c-0.1-0.6-0.1-1.3,0.3-1.9
			c0.4-0.6,0.9-1,1.7-1.2c0.6-0.1,1.4-0.1,2,0.3c0.6,0.4,1,0.9,1.2,1.5C61.9,87.4,61.8,88.2,61.4,88.7z M58.4,88.8
			c0.3,0.3,0.6,0.3,1.2,0.1c0.4-0.1,0.6-0.3,0.9-0.6c0.3-0.4,0.3-0.8,0.1-1.2s-0.3-0.8-0.6-0.9c-0.3-0.3-0.6-0.3-1.2-0.1
			c-0.4,0.1-0.6,0.3-0.9,0.6s-0.3,0.8-0.1,1.2C57.9,88.2,58.2,88.6,58.4,88.8z"/>
		<path class="st0" d="M65.7,88l-2-4.5l2-1c0.5-0.3,0.9-0.3,1.3-0.1c0.3,0.1,0.5,0.3,0.6,0.6c0.3,0.4,0.1,0.9-0.1,1.3
			c0.3,0,0.6,0,0.9,0.1c0.3,0.1,0.4,0.3,0.5,0.6c0.1,0.4,0.1,0.8,0,1c-0.3,0.3-0.5,0.6-1,0.9L65.7,88z M65.5,84.9l0.9-0.4
			c0.5-0.3,0.6-0.5,0.5-0.9c-0.1-0.1-0.1-0.3-0.3-0.3c-0.1,0-0.3,0-0.5,0.1L65.2,84L65.5,84.9z M66.2,86.7l1.2-0.5
			c0.5-0.3,0.6-0.5,0.5-0.9c-0.1-0.3-0.5-0.4-0.9-0.1l-1.2,0.5L66.2,86.7z"/>
		<path class="st0" d="M70.1,85.8l-0.9-5.2l0.9-0.5l4.5,2.9l-0.9,0.6l-1-0.6l-1.8,1.2l0.3,1.2L70.1,85.8z M70.6,83.1l1-0.6l-1.4-1
			L70.6,83.1z"/>
		<path class="st0" d="M75.4,82.3l-3.2-3.7l0.9-0.8l2.3,0.6L75,76.2l0.9-0.8l3.2,3.7l-0.8,0.6l-2-2.3l0.4,2.4l0,0l-2.3-0.6l2,2.3
			L75.4,82.3z"/>
		<path class="st0" d="M78.9,76.7l-2.6-1.8l-0.1-0.1l0.9-0.9l0.1,0.1l2,2.3L78.9,76.7z M79.9,78.1L79,77.3l0.8-0.9l0.9,0.8
			L79.9,78.1z"/>
	</g>
</g>
</svg>
